<?xml version="1.0" encoding="UTF-8" standalone="no"?>
<!DOCTYPE svg PUBLIC "-//W3C//DTD SVG 1.1//EN" "http://www.w3.org/Graphics/SVG/1.1/DTD/svg11.dtd">
<!--Generated by Intaglio, www.PurgatoryDesign.com-->
<svg version="1.1" viewBox="0,0,576,734" width="576" height="734" xmlns="http://www.w3.org/2000/svg" xmlns:xlink="http://www.w3.org/1999/xlink" xmlns:intaglio="http://purgatorydesign.com/namespaces/intaglio" intaglio:grid="12,12,1,1,0.5,#9999bf,1,0,0,0" intaglio:guides="0.8,#f0f,0,0" intaglio:ruler="1,2,2,1,1,0,0"><g><text fill="#000100" font-family="Helvetica" font-size="10" transform="matrix(1,0,0,1,266,418)" xml:space="preserve"><tspan>x-position (pixels)</tspan></text><text fill="#000100" font-family="Helvetica" font-size="6" transform="matrix(1,0,0,1,317.095,408.375)" xml:space="preserve"><tspan>1000</tspan></text><text fill="#000100" font-family="Helvetica" font-size="6" transform="matrix(1,0,0,1,272.932,408.469)" xml:space="preserve"><tspan>700</tspan></text><text fill="#000100" font-family="Helvetica" font-size="6" transform="matrix(1,0,0,1,120.72,408.25)" xml:space="preserve"><tspan>1000</tspan></text><text fill="#000100" font-family="Helvetica" font-size="6" transform="matrix(1,0,0,1,75.3071,408.344)" xml:space="preserve"><tspan>700</tspan></text><text fill="#000100" font-family="Helvetica" font-size="6" transform="matrix(1,0,0,1,219.22,408.25)" xml:space="preserve"><tspan>1000</tspan></text><text fill="#000100" font-family="Helvetica" font-size="6" transform="matrix(1,0,0,1,173.807,408.344)" xml:space="preserve"><tspan>700</tspan></text><text fill="#000100" font-family="Helvetica" font-size="6" transform="matrix(1,0,0,1,515.845,408.375)" xml:space="preserve"><tspan>1000</tspan></text><text fill="#000100" font-family="Helvetica" font-size="6" transform="matrix(1,0,0,1,470.432,408.469)" xml:space="preserve"><tspan>700</tspan></text><text fill="#000100" font-family="Helvetica" font-size="6" transform="matrix(1,0,0,1,416.095,408.25)" xml:space="preserve"><tspan>1000</tspan></text><text fill="#000100" font-family="Helvetica" font-size="6" transform="matrix(1,0,0,1,371.682,408.344)" xml:space="preserve"><tspan>700</tspan></text><g><g clip-path="url(#608000356bb0)"><clipPath id="608000356bb0"><path fill="#fc4ed1" fill-opacity="0.17" stroke="#000100" stroke-width="0.1" d="M73.0312,344.906 L134.156,344.906 L134.156,403.25 L73.0312,403.25 L73.0312,344.906 Z"/></clipPath><image xlink:href="59.pdf" width="288" height="288" transform="matrix(0.245226,0,0,0.245226,64.5625,339.688)"/></g><g clip-path="url(#600000350540)"><clipPath id="600000350540"><path fill="#fc4ed1" fill-opacity="0.17" stroke="#000100" stroke-width="0.1" d="M171.719,344.906 L232.844,344.906 L232.844,403.25 L171.719,403.25 L171.719,344.906 Z"/></clipPath><image xlink:href="56.pdf" width="288" height="288" transform="matrix(0.245226,0,0,0.245226,163.125,339.688)"/></g><g clip-path="url(#6180003511a0)"><clipPath id="6180003511a0"><path fill="#fc4ed1" fill-opacity="0.17" stroke="#000100" stroke-width="0.1" d="M369.094,344.906 L430.219,344.906 L430.219,403.25 L369.094,403.25 L369.094,344.906 Z"/></clipPath><image xlink:href="53.pdf" width="288" height="288" transform="matrix(0.245226,0,0,0.245226,360.625,339.688)"/></g><g clip-path="url(#610000345f90)"><clipPath id="610000345f90"><path fill="#fc4ed1" fill-opacity="0.17" stroke="#000100" stroke-width="0.1" d="M270.406,344.906 L331.531,344.906 L331.531,403.25 L270.406,403.25 L270.406,344.906 Z"/></clipPath><image xlink:href="52.pdf" width="288" height="288" transform="matrix(0.245226,0,0,0.245226,261.938,339.688)"/></g><g clip-path="url(#608000356d10)"><clipPath id="608000356d10"><path fill="#fc4ed1" fill-opacity="0.17" stroke="#000100" stroke-width="0.1" d="M467.781,344.906 L528.906,344.906 L528.906,403.25 L467.781,403.25 L467.781,344.906 Z"/></clipPath><image xlink:href="58.pdf" width="288" height="288" transform="matrix(0.245226,0,0,0.245226,459.312,339.688)"/></g></g><text fill="#000100" font-family="Helvetica" font-size="10" transform="matrix(6.12323e-17,-1,1,6.12323e-17,59.085,408.623)" xml:space="preserve"><tspan>y-position (pixels)</tspan></text><g><text fill="#000100" font-family="Helvetica" font-size="6" transform="matrix(1,0,0,1,62.5015,355.094)" xml:space="preserve"><tspan>500</tspan></text><text fill="#000100" font-family="Helvetica" font-size="6" transform="matrix(1,0,0,1,62.3872,396.469)" xml:space="preserve"><tspan>100</tspan></text></g></g><g><text fill="#000100" font-family="Helvetica" font-size="10" transform="matrix(6.12323e-17,-1,1,6.12323e-17,59.1787,229.748)" xml:space="preserve"><tspan>y-position (pixels)</tspan></text><text fill="#000100" font-family="Helvetica" font-size="6" transform="matrix(1,0,0,1,318.72,229.125)" xml:space="preserve"><tspan>1000</tspan></text><text fill="#000100" font-family="Helvetica" font-size="6" transform="matrix(1,0,0,1,273.307,229.219)" xml:space="preserve"><tspan>700</tspan></text><text fill="#000100" font-family="Helvetica" font-size="10" transform="matrix(1,0,0,1,265.5,239.25)" xml:space="preserve"><tspan>x-position (pixels)</tspan></text><text fill="#000100" font-family="Helvetica" font-size="6" transform="matrix(1,0,0,1,515.095,229)" xml:space="preserve"><tspan>1000</tspan></text><text fill="#000100" font-family="Helvetica" font-size="6" transform="matrix(1,0,0,1,469.682,229.094)" xml:space="preserve"><tspan>700</tspan></text><text fill="#000100" font-family="Helvetica" font-size="6" transform="matrix(1,0,0,1,416.97,229.25)" xml:space="preserve"><tspan>1000</tspan></text><text fill="#000100" font-family="Helvetica" font-size="6" transform="matrix(1,0,0,1,371.557,229.344)" xml:space="preserve"><tspan>700</tspan></text><text fill="#000100" font-family="Helvetica" font-size="6" transform="matrix(1,0,0,1,220.845,229.5)" xml:space="preserve"><tspan>1000</tspan></text><text fill="#000100" font-family="Helvetica" font-size="6" transform="matrix(1,0,0,1,175.432,229.594)" xml:space="preserve"><tspan>700</tspan></text><text fill="#000100" font-family="Helvetica" font-size="6" transform="matrix(1,0,0,1,121.595,229.25)" xml:space="preserve"><tspan>1000</tspan></text><text fill="#000100" font-family="Helvetica" font-size="6" transform="matrix(1,0,0,1,77.1821,229.344)" xml:space="preserve"><tspan>700</tspan></text><g clip-path="url(#608000356a50)"><clipPath id="608000356a50"><path fill="#fc4ed1" fill-opacity="0.17" stroke="#000100" stroke-width="0.1" d="M171.469,162.406 L232.594,162.406 L232.594,220.75 L171.469,220.75 L171.469,162.406 Z"/></clipPath><image xlink:href="57.pdf" width="288" height="288" transform="matrix(0.245226,0,0,0.245226,163,157.188)"/></g><g clip-path="url(#60000034fba0)"><clipPath id="60000034fba0"><path fill="#fc4ed1" fill-opacity="0.17" stroke="#000100" stroke-width="0.1" d="M270.031,162.406 L331.156,162.406 L331.156,220.75 L270.031,220.75 L270.031,162.406 Z"/></clipPath><image xlink:href="55.pdf" width="288" height="288" transform="matrix(0.245226,0,0,0.245226,261.562,157.188)"/></g><g clip-path="url(#618000352d20)"><clipPath id="618000352d20"><path fill="#fc4ed1" fill-opacity="0.17" stroke="#000100" stroke-width="0.1" d="M368.594,162.406 L429.719,162.406 L429.719,220.75 L368.594,220.75 L368.594,162.406 Z"/></clipPath><image xlink:href="51.pdf" width="288" height="288" transform="matrix(0.245226,0,0,0.245226,360,157.188)"/></g><g clip-path="url(#618000352220)"><clipPath id="618000352220"><path fill="#fc4ed1" fill-opacity="0.17" stroke="#000100" stroke-width="0.1" d="M467.156,162.406 L528.281,162.406 L528.281,220.75 L467.156,220.75 L467.156,162.406 Z"/></clipPath><image xlink:href="54.pdf" width="288" height="288" transform="matrix(0.245226,0,0,0.245226,458.688,157.188)"/></g><g clip-path="url(#6000003515c0)"><clipPath id="6000003515c0"><path fill="#fc4ed1" fill-opacity="0.17" stroke="#000100" stroke-width="0.1" d="M72.9062,162.406 L134.031,162.406 L134.031,220.75 L72.9062,220.75 L72.9062,162.406 Z"/></clipPath><image xlink:href="31.pdf" width="288" height="288" transform="matrix(0.245226,0,0,0.245226,64.3125,157.312)"/></g><g><text fill="#000100" font-family="Helvetica" font-size="6" transform="matrix(1,0,0,1,62.6577,172.688)" xml:space="preserve"><tspan>500</tspan></text><text fill="#000100" font-family="Helvetica" font-size="6" transform="matrix(1,0,0,1,62.5435,214.062)" xml:space="preserve"><tspan>100</tspan></text></g></g><g><g><image xlink:href="10.jpeg" width="300" height="300" transform="matrix(0.235796,0,0,0.235796,65.7203,84.3397)"/><image xlink:href="9.jpeg" width="300" height="300" transform="matrix(0.235059,0,0,0.235059,164.618,84.3397)"/><image xlink:href="8.jpeg" width="370" height="300" transform="matrix(0.235058,0,0,0.235058,255.178,84.3397)"/><image xlink:href="7.jpeg" width="300" height="348" transform="matrix(0.202638,0,0,0.202638,367.055,84.3397)"/><image xlink:href="6.jpeg" width="300" height="300" transform="matrix(0.235085,0,0,0.235085,460.974,84.3397)"/></g><g><path fill="#fffffe" stroke="#000100" d="M137.125,91.3139 C137.125,95.1656,134.003,98.288,130.151,98.288 C126.299,98.288,123.177,95.1656,123.177,91.3139 C123.177,87.4621,126.299,84.3397,130.151,84.3397 C134.003,84.3397,137.125,87.4621,137.125,91.3139 Z"/><text fill="#000100" font-family="Helvetica" font-size="10" transform="matrix(1,0,0,1,127.402,94.7953)" xml:space="preserve"><tspan>1</tspan></text></g><g><path fill="#fffffe" stroke="#000100" d="M234.5,91.3139 C234.5,95.1656,231.378,98.288,227.526,98.288 C223.674,98.288,220.552,95.1656,220.552,91.3139 C220.552,87.4621,223.674,84.3397,227.526,84.3397 C231.378,84.3397,234.5,87.4621,234.5,91.3139 Z"/><text fill="#000100" font-family="Helvetica" font-size="10" transform="matrix(1,0,0,1,224.796,94.7953)" xml:space="preserve"><tspan>2</tspan></text></g><g><path fill="#fffffe" stroke="#000100" d="M341.625,91.3139 C341.625,95.1656,338.503,98.288,334.651,98.288 C330.799,98.288,327.677,95.1656,327.677,91.3139 C327.677,87.4621,330.799,84.3397,334.651,84.3397 C338.503,84.3397,341.625,87.4621,341.625,91.3139 Z"/><text fill="#000100" font-family="Helvetica" font-size="10" transform="matrix(1,0,0,1,331.968,94.7196)" xml:space="preserve"><tspan>3</tspan></text></g><g><path fill="#fffffe" stroke="#000100" d="M427.25,91.3139 C427.25,95.1656,424.128,98.288,420.276,98.288 C416.424,98.288,413.302,95.1656,413.302,91.3139 C413.302,87.4621,416.424,84.3397,420.276,84.3397 C424.128,84.3397,427.25,87.4621,427.25,91.3139 Z"/><text fill="#000100" font-family="Helvetica" font-size="10" transform="matrix(1,0,0,1,417.534,94.8197)" xml:space="preserve"><tspan>4</tspan></text></g><g><path fill="#fffffe" stroke="#000100" d="M530.75,91.3139 C530.75,95.1656,527.628,98.288,523.776,98.288 C519.924,98.288,516.802,95.1656,516.802,91.3139 C516.802,87.4621,519.924,84.3397,523.776,84.3397 C527.628,84.3397,530.75,87.4621,530.75,91.3139 Z"/><text fill="#000100" font-family="Helvetica" font-size="10" transform="matrix(1,0,0,1,521.046,94.6635)" xml:space="preserve"><tspan>5</tspan></text></g></g><g><g><image xlink:href="5.jpeg" width="300" height="300" transform="matrix(0.232344,0,0,0.232344,65.9557,264.079)"/><image xlink:href="4.jpeg" width="300" height="300" transform="matrix(0.233084,0,0,0.233084,164.632,264.079)"/><image xlink:href="3.jpeg" width="300" height="300" transform="matrix(0.233084,0,0,0.233084,263.418,264.079)"/><image xlink:href="2.jpeg" width="216" height="216" transform="matrix(0.323649,0,0,0.323649,362.214,264.079)"/><image xlink:href="1.jpeg" width="300" height="297" transform="matrix(0.235398,0,0,0.235398,460.645,264.079)"/></g><g><path fill="#fffffe" stroke="#000100" d="M134.5,271.054 C134.5,274.905,131.378,278.028,127.526,278.028 C123.674,278.028,120.552,274.905,120.552,271.054 C120.552,267.202,123.674,264.079,127.526,264.079 C131.378,264.079,134.5,267.202,134.5,271.054 Z"/><text fill="#000100" font-family="Helvetica" font-size="10" transform="matrix(1,0,0,1,124.752,274.474)" xml:space="preserve"><tspan>6</tspan></text></g><g><path fill="#fffffe" stroke="#000100" d="M233.75,271.304 C233.75,275.155,230.628,278.278,226.776,278.278 C222.924,278.278,219.802,275.155,219.802,271.304 C219.802,267.452,222.924,264.329,226.776,264.329 C230.628,264.329,233.75,267.452,233.75,271.304 Z"/><text fill="#000100" font-family="Helvetica" font-size="10" transform="matrix(1,0,0,1,224.228,274.741)" xml:space="preserve"><tspan>7</tspan></text></g><g><path fill="#fffffe" stroke="#000100" d="M332.75,271.804 C332.75,275.655,329.628,278.778,325.776,278.778 C321.924,278.778,318.802,275.655,318.802,271.804 C318.802,267.952,321.924,264.829,325.776,264.829 C329.628,264.829,332.75,267.952,332.75,271.804 Z"/><text fill="#000100" font-family="Helvetica" font-size="10" transform="matrix(1,0,0,1,323.051,275.209)" xml:space="preserve"><tspan>8</tspan></text></g><g><path fill="#fffffe" stroke="#000100" d="M431.375,271.554 C431.375,275.405,428.253,278.528,424.401,278.528 C420.549,278.528,417.427,275.405,417.427,271.554 C417.427,267.702,420.549,264.579,424.401,264.579 C428.253,264.579,431.375,267.702,431.375,271.554 Z"/><text fill="#000100" font-family="Helvetica" font-size="10" transform="matrix(1,0,0,1,421.681,274.957)" xml:space="preserve"><tspan>9</tspan></text></g><g><path fill="#fffffe" stroke="#000100" d="M530.765,271.804 C530.765,275.655,527.642,278.778,523.79,278.778 C519.939,278.778,516.816,275.655,516.816,271.804 C516.816,267.952,519.939,264.829,523.79,264.829 C527.642,264.829,530.765,267.952,530.765,271.804 Z"/><text fill="#000100" font-family="Helvetica" font-size="10" transform="matrix(1,0,0,1,517.875,275.462)" xml:space="preserve"><tspan>10</tspan></text></g></g></svg>
