<?xml version="1.0" encoding="UTF-8" standalone="no"?>
<!DOCTYPE svg PUBLIC "-//W3C//DTD SVG 1.1//EN" "http://www.w3.org/Graphics/SVG/1.1/DTD/svg11.dtd">
<!--Generated by Intaglio, www.PurgatoryDesign.com-->
<svg version="1.1" viewBox="0,0,576,734" width="576" height="734" xmlns="http://www.w3.org/2000/svg" xmlns:xlink="http://www.w3.org/1999/xlink" xmlns:intaglio="http://purgatorydesign.com/namespaces/intaglio" intaglio:grid="12,12,1,1,0.5,#9999bf,1,0,0,0" intaglio:guides="0.8,#f0f,0,0" intaglio:ruler="1,2,2,1,1,0,0"><text fill="#000100" font-family="Helvetica" font-size="10" transform="matrix(1,0,0,1,280,417.25)" xml:space="preserve"><tspan>x-position</tspan></text><text fill="#000100" font-family="Helvetica" font-size="10" transform="matrix(1,0,0,1,279.5,238.5)" xml:space="preserve"><tspan>x-position</tspan></text><g><g><image xlink:href="10.jpeg" width="300" height="300" transform="matrix(0.235796,0,0,0.235796,65.7203,84.3397)"/><image xlink:href="9.jpeg" width="300" height="300" transform="matrix(0.235059,0,0,0.235059,164.618,84.3397)"/><image xlink:href="8.jpeg" width="370" height="300" transform="matrix(0.235058,0,0,0.235058,255.178,84.3397)"/><image xlink:href="7.jpeg" width="300" height="348" transform="matrix(0.202638,0,0,0.202638,367.055,84.3397)"/><image xlink:href="6.jpeg" width="300" height="300" transform="matrix(0.235085,0,0,0.235085,460.974,84.3397)"/></g><g><path fill="#fffffe" stroke="#000100" d="M137.125,91.3139 C137.125,95.1656,134.003,98.288,130.151,98.288 C126.299,98.288,123.177,95.1656,123.177,91.3139 C123.177,87.4621,126.299,84.3397,130.151,84.3397 C134.003,84.3397,137.125,87.4621,137.125,91.3139 Z"/><text fill="#000100" font-family="Helvetica" font-size="10" transform="matrix(1,0,0,1,127.402,94.7953)" xml:space="preserve"><tspan>1</tspan></text></g><g><path fill="#fffffe" stroke="#000100" d="M234.5,91.3139 C234.5,95.1656,231.378,98.288,227.526,98.288 C223.674,98.288,220.552,95.1656,220.552,91.3139 C220.552,87.4621,223.674,84.3397,227.526,84.3397 C231.378,84.3397,234.5,87.4621,234.5,91.3139 Z"/><text fill="#000100" font-family="Helvetica" font-size="10" transform="matrix(1,0,0,1,224.796,94.7953)" xml:space="preserve"><tspan>2</tspan></text></g><g><path fill="#fffffe" stroke="#000100" d="M341.625,91.3139 C341.625,95.1656,338.503,98.288,334.651,98.288 C330.799,98.288,327.677,95.1656,327.677,91.3139 C327.677,87.4621,330.799,84.3397,334.651,84.3397 C338.503,84.3397,341.625,87.4621,341.625,91.3139 Z"/><text fill="#000100" font-family="Helvetica" font-size="10" transform="matrix(1,0,0,1,331.968,94.7196)" xml:space="preserve"><tspan>3</tspan></text></g><g><path fill="#fffffe" stroke="#000100" d="M427.25,91.3139 C427.25,95.1656,424.128,98.288,420.276,98.288 C416.424,98.288,413.302,95.1656,413.302,91.3139 C413.302,87.4621,416.424,84.3397,420.276,84.3397 C424.128,84.3397,427.25,87.4621,427.25,91.3139 Z"/><text fill="#000100" font-family="Helvetica" font-size="10" transform="matrix(1,0,0,1,417.534,94.8197)" xml:space="preserve"><tspan>4</tspan></text></g><g><path fill="#fffffe" stroke="#000100" d="M530.75,91.3139 C530.75,95.1656,527.628,98.288,523.776,98.288 C519.924,98.288,516.802,95.1656,516.802,91.3139 C516.802,87.4621,519.924,84.3397,523.776,84.3397 C527.628,84.3397,530.75,87.4621,530.75,91.3139 Z"/><text fill="#000100" font-family="Helvetica" font-size="10" transform="matrix(1,0,0,1,521.046,94.6635)" xml:space="preserve"><tspan>5</tspan></text></g></g><g><g><image xlink:href="5.jpeg" width="300" height="300" transform="matrix(0.232344,0,0,0.232344,65.9557,264.079)"/><image xlink:href="4.jpeg" width="300" height="300" transform="matrix(0.233084,0,0,0.233084,164.632,264.079)"/><image xlink:href="3.jpeg" width="300" height="300" transform="matrix(0.233084,0,0,0.233084,263.418,264.079)"/><image xlink:href="2.jpeg" width="216" height="216" transform="matrix(0.323649,0,0,0.323649,362.214,264.079)"/><image xlink:href="1.jpeg" width="300" height="297" transform="matrix(0.235398,0,0,0.235398,460.645,264.079)"/></g><g><path fill="#fffffe" stroke="#000100" d="M134.5,271.054 C134.5,274.905,131.378,278.028,127.526,278.028 C123.674,278.028,120.552,274.905,120.552,271.054 C120.552,267.202,123.674,264.079,127.526,264.079 C131.378,264.079,134.5,267.202,134.5,271.054 Z"/><text fill="#000100" font-family="Helvetica" font-size="10" transform="matrix(1,0,0,1,124.752,274.474)" xml:space="preserve"><tspan>6</tspan></text></g><g><path fill="#fffffe" stroke="#000100" d="M233.75,271.304 C233.75,275.155,230.628,278.278,226.776,278.278 C222.924,278.278,219.802,275.155,219.802,271.304 C219.802,267.452,222.924,264.329,226.776,264.329 C230.628,264.329,233.75,267.452,233.75,271.304 Z"/><text fill="#000100" font-family="Helvetica" font-size="10" transform="matrix(1,0,0,1,224.228,274.741)" xml:space="preserve"><tspan>7</tspan></text></g><g><path fill="#fffffe" stroke="#000100" d="M332.75,271.804 C332.75,275.655,329.628,278.778,325.776,278.778 C321.924,278.778,318.802,275.655,318.802,271.804 C318.802,267.952,321.924,264.829,325.776,264.829 C329.628,264.829,332.75,267.952,332.75,271.804 Z"/><text fill="#000100" font-family="Helvetica" font-size="10" transform="matrix(1,0,0,1,323.051,275.209)" xml:space="preserve"><tspan>8</tspan></text></g><g><path fill="#fffffe" stroke="#000100" d="M431.375,271.554 C431.375,275.405,428.253,278.528,424.401,278.528 C420.549,278.528,417.427,275.405,417.427,271.554 C417.427,267.702,420.549,264.579,424.401,264.579 C428.253,264.579,431.375,267.702,431.375,271.554 Z"/><text fill="#000100" font-family="Helvetica" font-size="10" transform="matrix(1,0,0,1,421.681,274.957)" xml:space="preserve"><tspan>9</tspan></text></g><g><path fill="#fffffe" stroke="#000100" d="M530.765,271.804 C530.765,275.655,527.642,278.778,523.79,278.778 C519.939,278.778,516.816,275.655,516.816,271.804 C516.816,267.952,519.939,264.829,523.79,264.829 C527.642,264.829,530.765,267.952,530.765,271.804 Z"/><text fill="#000100" font-family="Helvetica" font-size="10" transform="matrix(1,0,0,1,517.875,275.462)" xml:space="preserve"><tspan>10</tspan></text></g></g><g><g clip-path="url(#610000346510)"><clipPath id="610000346510"><path fill="#cc006a" fill-opacity="0.09" stroke="#000100" stroke-width="0.1" d="M73.125,165.5 L134.188,165.5 L134.188,224.25 L73.125,224.25 L73.125,165.5 Z"/></clipPath><image xlink:href="63.pdf" width="288" height="288" transform="matrix(0.246528,0,0,0.246528,64,160.375)"/></g><g clip-path="url(#610000350d80)"><clipPath id="610000350d80"><path fill="#cc006a" fill-opacity="0.09" stroke="#000100" stroke-width="0.1" d="M171.5,165.5 L232.562,165.5 L232.562,224.25 L171.5,224.25 L171.5,165.5 Z"/></clipPath><image xlink:href="64.pdf" width="288" height="288" transform="matrix(0.246528,0,0,0.246528,162.375,160.375)"/></g><g clip-path="url(#610000352010)"><clipPath id="610000352010"><path fill="#cc006a" fill-opacity="0.09" stroke="#000100" stroke-width="0.1" d="M269.875,165.5 L330.938,165.5 L330.938,224.25 L269.875,224.25 L269.875,165.5 Z"/></clipPath><image xlink:href="61.pdf" width="288" height="288" transform="matrix(0.246528,0,0,0.246528,260.75,160.375)"/></g><g clip-path="url(#610000349a00)"><clipPath id="610000349a00"><path fill="#cc006a" fill-opacity="0.09" stroke="#000100" stroke-width="0.1" d="M368.25,165.5 L429.312,165.5 L429.312,224.25 L368.25,224.25 L368.25,165.5 Z"/></clipPath><image xlink:href="65.pdf" width="288" height="288" transform="matrix(0.246528,0,0,0.246528,359.125,160.375)"/></g><g clip-path="url(#610000350120)"><clipPath id="610000350120"><path fill="#cc006a" fill-opacity="0.09" stroke="#000100" stroke-width="0.1" d="M466.625,165.5 L527.688,165.5 L527.688,224.25 L466.625,224.25 L466.625,165.5 Z"/></clipPath><image xlink:href="32.pdf" width="288" height="288" transform="matrix(0.246528,0,0,0.246528,457.5,160.375)"/></g></g><g><g clip-path="url(#61000034eff0)"><clipPath id="61000034eff0"><path fill="#cc006a" fill-opacity="0.09" stroke="#000100" stroke-width="0.1" d="M73.125,344.5 L134.188,344.5 L134.188,403.25 L73.125,403.25 L73.125,344.5 Z"/></clipPath><image xlink:href="66.pdf" width="288" height="288" transform="matrix(0.246528,0,0,0.246528,64,339.375)"/></g><g clip-path="url(#610000350280)"><clipPath id="610000350280"><path fill="#cc006a" fill-opacity="0.09" stroke="#000100" stroke-width="0.1" d="M171.625,344.5 L232.688,344.5 L232.688,403.25 L171.625,403.25 L171.625,344.5 Z"/></clipPath><image xlink:href="62.pdf" width="288" height="288" transform="matrix(0.246528,0,0,0.246528,162.5,339.375)"/></g><g clip-path="url(#6100003458b0)"><clipPath id="6100003458b0"><path fill="#cc006a" fill-opacity="0.09" stroke="#000100" stroke-width="0.1" d="M270.25,344.5 L331.312,344.5 L331.312,403.25 L270.25,403.25 L270.25,344.5 Z"/></clipPath><image xlink:href="60.pdf" width="288" height="288" transform="matrix(0.246528,0,0,0.246528,261,339.375)"/></g><g clip-path="url(#61000034f570)"><clipPath id="61000034f570"><path fill="#cc006a" fill-opacity="0.09" stroke="#000100" stroke-width="0.1" d="M368.625,344.5 L429.688,344.5 L429.688,403.25 L368.625,403.25 L368.625,344.5 Z"/></clipPath><image xlink:href="33.pdf" width="288" height="288" transform="matrix(0.246528,0,0,0.246528,359.5,339.375)"/></g><g clip-path="url(#6100003501d0)"><clipPath id="6100003501d0"><path fill="#cc006a" fill-opacity="0.09" stroke="#000100" stroke-width="0.1" d="M467.125,344.5 L528.188,344.5 L528.188,403.25 L467.125,403.25 L467.125,344.5 Z"/></clipPath><image xlink:href="67.pdf" width="288" height="288" transform="matrix(0.246528,0,0,0.246528,458,339.375)"/></g></g><g><text fill="#000100" font-family="Helvetica" font-size="6" transform="matrix(1,0,0,1,69.4077,170.688)" xml:space="preserve"><tspan>1</tspan></text><text fill="#000100" font-family="Helvetica" font-size="6" transform="matrix(1,0,0,1,68.7935,222.688)" xml:space="preserve"><tspan>0</tspan></text></g><g><g><text fill="#000100" font-family="Helvetica" font-size="6" transform="matrix(1,0,0,1,129.533,228.67)" xml:space="preserve"><tspan>1</tspan></text><text fill="#000100" font-family="Helvetica" font-size="6" transform="matrix(1,0,0,1,73.4946,228.67)" xml:space="preserve"><tspan>-1</tspan></text><text fill="#000100" font-family="Helvetica" font-size="6" transform="matrix(1,0,0,1,102.305,228.688)" xml:space="preserve"><tspan>0</tspan></text></g><g><text fill="#000100" font-family="Helvetica" font-size="6" transform="matrix(1,0,0,1,227.908,228.67)" xml:space="preserve"><tspan>1</tspan></text><text fill="#000100" font-family="Helvetica" font-size="6" transform="matrix(1,0,0,1,171.87,228.67)" xml:space="preserve"><tspan>-1</tspan></text><text fill="#000100" font-family="Helvetica" font-size="6" transform="matrix(1,0,0,1,200.68,228.688)" xml:space="preserve"><tspan>0</tspan></text></g><g><text fill="#000100" font-family="Helvetica" font-size="6" transform="matrix(1,0,0,1,326.283,228.67)" xml:space="preserve"><tspan>1</tspan></text><text fill="#000100" font-family="Helvetica" font-size="6" transform="matrix(1,0,0,1,270.245,228.67)" xml:space="preserve"><tspan>-1</tspan></text><text fill="#000100" font-family="Helvetica" font-size="6" transform="matrix(1,0,0,1,299.055,228.688)" xml:space="preserve"><tspan>0</tspan></text></g><g><text fill="#000100" font-family="Helvetica" font-size="6" transform="matrix(1,0,0,1,424.658,228.67)" xml:space="preserve"><tspan>1</tspan></text><text fill="#000100" font-family="Helvetica" font-size="6" transform="matrix(1,0,0,1,368.62,228.67)" xml:space="preserve"><tspan>-1</tspan></text><text fill="#000100" font-family="Helvetica" font-size="6" transform="matrix(1,0,0,1,397.43,228.688)" xml:space="preserve"><tspan>0</tspan></text></g><g><text fill="#000100" font-family="Helvetica" font-size="6" transform="matrix(1,0,0,1,523.033,228.67)" xml:space="preserve"><tspan>1</tspan></text><text fill="#000100" font-family="Helvetica" font-size="6" transform="matrix(1,0,0,1,466.995,228.67)" xml:space="preserve"><tspan>-1</tspan></text><text fill="#000100" font-family="Helvetica" font-size="6" transform="matrix(1,0,0,1,495.805,228.688)" xml:space="preserve"><tspan>0</tspan></text></g></g><text fill="#000100" font-family="Helvetica" font-size="6" transform="matrix(1,0,0,1,129.595,407.732)" xml:space="preserve"><tspan>1</tspan></text><text fill="#000100" font-family="Helvetica" font-size="6" transform="matrix(1,0,0,1,73.5571,407.732)" xml:space="preserve"><tspan>-1</tspan></text><text fill="#000100" font-family="Helvetica" font-size="6" transform="matrix(1,0,0,1,102.367,407.75)" xml:space="preserve"><tspan>0</tspan></text><g><text fill="#000100" font-family="Helvetica" font-size="6" transform="matrix(1,0,0,1,228.345,407.732)" xml:space="preserve"><tspan>1</tspan></text><text fill="#000100" font-family="Helvetica" font-size="6" transform="matrix(1,0,0,1,172.307,407.732)" xml:space="preserve"><tspan>-1</tspan></text><text fill="#000100" font-family="Helvetica" font-size="6" transform="matrix(1,0,0,1,201.117,407.75)" xml:space="preserve"><tspan>0</tspan></text></g><g><text fill="#000100" font-family="Helvetica" font-size="6" transform="matrix(1,0,0,1,326.72,407.732)" xml:space="preserve"><tspan>1</tspan></text><text fill="#000100" font-family="Helvetica" font-size="6" transform="matrix(1,0,0,1,270.682,407.732)" xml:space="preserve"><tspan>-1</tspan></text><text fill="#000100" font-family="Helvetica" font-size="6" transform="matrix(1,0,0,1,299.492,407.75)" xml:space="preserve"><tspan>0</tspan></text></g><g><text fill="#000100" font-family="Helvetica" font-size="6" transform="matrix(1,0,0,1,425.095,407.732)" xml:space="preserve"><tspan>1</tspan></text><text fill="#000100" font-family="Helvetica" font-size="6" transform="matrix(1,0,0,1,369.057,407.732)" xml:space="preserve"><tspan>-1</tspan></text><text fill="#000100" font-family="Helvetica" font-size="6" transform="matrix(1,0,0,1,397.867,407.75)" xml:space="preserve"><tspan>0</tspan></text></g><g><text fill="#000100" font-family="Helvetica" font-size="6" transform="matrix(1,0,0,1,523.47,407.732)" xml:space="preserve"><tspan>1</tspan></text><text fill="#000100" font-family="Helvetica" font-size="6" transform="matrix(1,0,0,1,467.432,407.732)" xml:space="preserve"><tspan>-1</tspan></text><text fill="#000100" font-family="Helvetica" font-size="6" transform="matrix(1,0,0,1,496.242,407.75)" xml:space="preserve"><tspan>0</tspan></text></g><g><text fill="#000100" font-family="Helvetica" font-size="10" transform="matrix(6.12323e-17,-1,1,6.12323e-17,64.835,394.373)" xml:space="preserve"><tspan>y-position</tspan></text><text fill="#000100" font-family="Helvetica" font-size="10" transform="matrix(6.12323e-17,-1,1,6.12323e-17,64.9287,215.498)" xml:space="preserve"><tspan>y-position</tspan></text></g><g><text fill="#000100" font-family="Helvetica" font-size="6" transform="matrix(1,0,0,1,70.0327,349.562)" xml:space="preserve"><tspan>1</tspan></text><text fill="#000100" font-family="Helvetica" font-size="6" transform="matrix(1,0,0,1,69.4185,401.562)" xml:space="preserve"><tspan>0</tspan></text></g></svg>
