<?xml version="1.0" encoding="UTF-8" standalone="no"?>
<!DOCTYPE svg PUBLIC "-//W3C//DTD SVG 1.1//EN" "http://www.w3.org/Graphics/SVG/1.1/DTD/svg11.dtd">
<!--Generated by Intaglio, www.PurgatoryDesign.com-->
<svg version="1.1" viewBox="0,0,576,734" width="576" height="734" xmlns="http://www.w3.org/2000/svg" xmlns:xlink="http://www.w3.org/1999/xlink" xmlns:intaglio="http://purgatorydesign.com/namespaces/intaglio" intaglio:grid="36,36,1,1,0.5,#9999bf,0,0,0,0" intaglio:guides="0.8,#f0f,1,1"><image xlink:href="1.png" width="1306" height="1160" transform="matrix(0.385145,0,0,0.385145,37.5,109)"/><image xlink:href="4.png" width="300" height="300" transform="matrix(0.772748,0,0,0.772748,169.926,208.384)"/><path fill="#f00" fill-opacity="0.25" stroke="#000100" stroke-width="3" d="M289,527.75 C289,527.75,155.5,494.5,166,472 C177.841,446.627,409.826,421.612,439,372 C467,324.384,421.5,224,439.5,190 C453.544,163.472,507,155.5,507,155.5"/><path fill="none" stroke="#f00" stroke-width="3.5" stroke-dasharray="5.5" d="M289,527.75 L507,155.5"/><path fill="none" stroke="#f00" stroke-width="3.5" stroke-dasharray="5,5" d="M140,607.468 L211.5,607.468"/><path fill="none" stroke="#000100" stroke-width="3" d="M140,583.482 L211.5,583.482"/><path fill="#f00" fill-opacity="0.25" stroke="#000100" d="M140,659.5 L211.5,659.5 L211.5,695 L140,695 L140,659.5 Z"/><g><path fill="#f00" intaglio:arrow-start="8" intaglio:arrow-end="8" stroke="#f00" stroke-width="2.5" d="M166,474.5 L319.5,474.5"/><path fill="none" intaglio:omit="yes" stroke="#f00" stroke-width="2.5" d="M166,480.688 L166,468.312 M177,480 L166,474.569 L166,474.431 L177,469"/><path fill="none" intaglio:omit="yes" stroke="#f00" stroke-width="2.5" d="M319.5,468.312 L319.5,480.688 M308.5,469 L319.5,474.431 L319.5,474.569 L308.5,480"/></g><g><path fill="#f00" intaglio:arrow-start="8" intaglio:arrow-end="8" stroke="#f00" stroke-width="2.5" d="M140,636.134 L211.5,636.134"/><path fill="none" intaglio:omit="yes" stroke="#f00" stroke-width="2.5" d="M140,642.322 L140,629.947 M151,641.634 L140,636.203 L140,636.066 L151,630.634"/><path fill="none" intaglio:omit="yes" stroke="#f00" stroke-width="2.5" d="M211.5,629.947 L211.5,642.322 M200.5,630.634 L211.5,636.066 L211.5,636.203 L200.5,641.634"/></g><path fill="none" stroke="#000100" d="M20,91.2688 L540.5,91.2688 L540.5,564.5 L20,564.5 L20,91.2688 Z"/><text fill="#000100" font-family="Helvetica" font-size="16" transform="matrix(1,0,0,1,236.75,588.5)" xml:space="preserve"><tspan>actual trajectory</tspan></text><text fill="#000100" font-family="Helvetica" font-size="16" transform="matrix(1,0,0,1,236.75,612.5)" xml:space="preserve"><tspan>ideal trajectory</tspan></text><text fill="#000100" font-family="Helvetica" font-size="16" transform="matrix(1,0,0,1,237.305,635.177)" xml:space="preserve"><tspan>maximum horizontal deviation</tspan></text><text fill="#000100" font-family="Helvetica" font-size="16" transform="matrix(1,0,0,1,237.523,681.25)" xml:space="preserve"><tspan>area vs. ideal trajectory</tspan></text><text fill="#000100" font-family="Helvetica" font-size="16" transform="matrix(1,0,0,1,238.25,650.65)" xml:space="preserve"><tspan>vs. ideal trajectory</tspan></text></svg>
