<?xml version="1.0" encoding="UTF-8" standalone="no"?>
<!DOCTYPE svg PUBLIC "-//W3C//DTD SVG 1.1//EN" "http://www.w3.org/Graphics/SVG/1.1/DTD/svg11.dtd">
<!--Generated by Intaglio, www.PurgatoryDesign.com-->
<svg version="1.1" viewBox="0,0,576,734" width="576" height="734" xmlns="http://www.w3.org/2000/svg" xmlns:xlink="http://www.w3.org/1999/xlink" xmlns:intaglio="http://purgatorydesign.com/namespaces/intaglio" intaglio:grid="12,12,1,1,0.5,#9999bf,1,0,0,0" intaglio:guides="0.8,#f0f,0,0" intaglio:ruler="1,2,2,1,1,0,0"><g><image xlink:href="5.jpeg" width="300" height="300" transform="matrix(0.232344,0,0,0.232344,60.4557,264.079)"/><image xlink:href="4.jpeg" width="300" height="300" transform="matrix(0.233084,0,0,0.233084,159.132,264.079)"/><image xlink:href="3.jpeg" width="300" height="300" transform="matrix(0.233084,0,0,0.233084,257.918,264.079)"/><image xlink:href="2.jpeg" width="216" height="216" transform="matrix(0.323649,0,0,0.323649,356.714,264.079)"/><image xlink:href="1.jpeg" width="300" height="297" transform="matrix(0.235398,0,0,0.235398,455.145,264.079)"/></g><g><image xlink:href="10.jpeg" width="300" height="300" transform="matrix(0.235796,0,0,0.235796,60.2203,84.3397)"/><image xlink:href="9.jpeg" width="300" height="300" transform="matrix(0.235059,0,0,0.235059,159.118,84.3397)"/><image xlink:href="8.jpeg" width="370" height="300" transform="matrix(0.235058,0,0,0.235058,249.678,84.3397)"/><image xlink:href="7.jpeg" width="300" height="348" transform="matrix(0.202638,0,0,0.202638,361.555,84.3397)"/><image xlink:href="6.jpeg" width="300" height="300" transform="matrix(0.235085,0,0,0.235085,455.474,84.3397)"/></g><g><path fill="#fffffe" stroke="#000100" d="M131.625,91.3139 C131.625,95.1656,128.503,98.288,124.651,98.288 C120.799,98.288,117.677,95.1656,117.677,91.3139 C117.677,87.4621,120.799,84.3397,124.651,84.3397 C128.503,84.3397,131.625,87.4621,131.625,91.3139 Z"/><text fill="#000100" font-family="Helvetica" font-size="10" transform="matrix(1,0,0,1,121.902,94.7953)" xml:space="preserve"><tspan>1</tspan></text></g><g><path fill="#fffffe" stroke="#000100" d="M229,91.3139 C229,95.1656,225.878,98.288,222.026,98.288 C218.174,98.288,215.052,95.1656,215.052,91.3139 C215.052,87.4621,218.174,84.3397,222.026,84.3397 C225.878,84.3397,229,87.4621,229,91.3139 Z"/><text fill="#000100" font-family="Helvetica" font-size="10" transform="matrix(1,0,0,1,219.296,94.7953)" xml:space="preserve"><tspan>2</tspan></text></g><g><path fill="#fffffe" stroke="#000100" d="M336.125,91.3139 C336.125,95.1656,333.003,98.288,329.151,98.288 C325.299,98.288,322.177,95.1656,322.177,91.3139 C322.177,87.4621,325.299,84.3397,329.151,84.3397 C333.003,84.3397,336.125,87.4621,336.125,91.3139 Z"/><text fill="#000100" font-family="Helvetica" font-size="10" transform="matrix(1,0,0,1,326.468,94.7196)" xml:space="preserve"><tspan>3</tspan></text></g><g><path fill="#fffffe" stroke="#000100" d="M421.75,91.3139 C421.75,95.1656,418.628,98.288,414.776,98.288 C410.924,98.288,407.802,95.1656,407.802,91.3139 C407.802,87.4621,410.924,84.3397,414.776,84.3397 C418.628,84.3397,421.75,87.4621,421.75,91.3139 Z"/><text fill="#000100" font-family="Helvetica" font-size="10" transform="matrix(1,0,0,1,412.034,94.8197)" xml:space="preserve"><tspan>4</tspan></text></g><g><path fill="#fffffe" stroke="#000100" d="M525.25,91.3139 C525.25,95.1656,522.128,98.288,518.276,98.288 C514.424,98.288,511.302,95.1656,511.302,91.3139 C511.302,87.4621,514.424,84.3397,518.276,84.3397 C522.128,84.3397,525.25,87.4621,525.25,91.3139 Z"/><text fill="#000100" font-family="Helvetica" font-size="10" transform="matrix(1,0,0,1,515.546,94.6635)" xml:space="preserve"><tspan>5</tspan></text></g><g><path fill="#fffffe" stroke="#000100" d="M129,271.054 C129,274.905,125.878,278.028,122.026,278.028 C118.174,278.028,115.052,274.905,115.052,271.054 C115.052,267.202,118.174,264.079,122.026,264.079 C125.878,264.079,129,267.202,129,271.054 Z"/><text fill="#000100" font-family="Helvetica" font-size="10" transform="matrix(1,0,0,1,119.252,274.474)" xml:space="preserve"><tspan>6</tspan></text></g><g><path fill="#fffffe" stroke="#000100" d="M228.25,271.304 C228.25,275.155,225.128,278.278,221.276,278.278 C217.424,278.278,214.302,275.155,214.302,271.304 C214.302,267.452,217.424,264.329,221.276,264.329 C225.128,264.329,228.25,267.452,228.25,271.304 Z"/><text fill="#000100" font-family="Helvetica" font-size="10" transform="matrix(1,0,0,1,218.728,274.741)" xml:space="preserve"><tspan>7</tspan></text></g><g><path fill="#fffffe" stroke="#000100" d="M327.25,271.804 C327.25,275.655,324.128,278.778,320.276,278.778 C316.424,278.778,313.302,275.655,313.302,271.804 C313.302,267.952,316.424,264.829,320.276,264.829 C324.128,264.829,327.25,267.952,327.25,271.804 Z"/><text fill="#000100" font-family="Helvetica" font-size="10" transform="matrix(1,0,0,1,317.551,275.209)" xml:space="preserve"><tspan>8</tspan></text></g><g><path fill="#fffffe" stroke="#000100" d="M425.875,271.554 C425.875,275.405,422.753,278.528,418.901,278.528 C415.049,278.528,411.927,275.405,411.927,271.554 C411.927,267.702,415.049,264.579,418.901,264.579 C422.753,264.579,425.875,267.702,425.875,271.554 Z"/><text fill="#000100" font-family="Helvetica" font-size="10" transform="matrix(1,0,0,1,416.181,274.957)" xml:space="preserve"><tspan>9</tspan></text></g><g><path fill="#fffffe" stroke="#000100" d="M525.265,271.804 C525.265,275.655,522.142,278.778,518.29,278.778 C514.439,278.778,511.316,275.655,511.316,271.804 C511.316,267.952,514.439,264.829,518.29,264.829 C522.142,264.829,525.265,267.952,525.265,271.804 Z"/><text fill="#000100" font-family="Helvetica" font-size="10" transform="matrix(1,0,0,1,512.375,275.462)" xml:space="preserve"><tspan>10</tspan></text></g><text fill="#000100" font-family="Helvetica" font-size="6" transform="matrix(1,0,0,1,57.0327,172.062)" xml:space="preserve"><tspan>1000</tspan></text><text fill="#000100" font-family="Helvetica" font-size="6" transform="matrix(1,0,0,1,60.3696,197.281)" xml:space="preserve"><tspan>500</tspan></text><text fill="#000100" font-family="Helvetica" font-size="6" transform="matrix(1,0,0,1,67.0435,222.5)" xml:space="preserve"><tspan>0</tspan></text><text fill="#000100" font-family="Helvetica" font-size="6" transform="matrix(1,0,0,1,54.3452,348.125)" xml:space="preserve"><tspan>1000</tspan></text><text fill="#000100" font-family="Helvetica" font-size="6" transform="matrix(1,0,0,1,57.6821,374.906)" xml:space="preserve"><tspan>500</tspan></text><text fill="#000100" font-family="Helvetica" font-size="6" transform="matrix(1,0,0,1,64.356,401.688)" xml:space="preserve"><tspan>0</tspan></text><text fill="#000100" font-family="Helvetica" font-size="10" transform="matrix(6.12323e-17,-1,1,6.12323e-17,55.0537,394.873)" xml:space="preserve"><tspan>time (ms)</tspan></text><text fill="#000100" font-family="Helvetica" font-size="10" transform="matrix(1,0,0,1,262,418)" xml:space="preserve"><tspan>x-position (pixels)</tspan></text><text fill="#000100" font-family="Helvetica" font-size="10" transform="matrix(6.12323e-17,-1,1,6.12323e-17,56.1787,216.748)" xml:space="preserve"><tspan>time (ms)</tspan></text><g clip-path="url(#610000346ca0)"><clipPath id="610000346ca0"><path fill="#fc4ed1" fill-opacity="0.17" stroke="#000100" stroke-width="0.1" d="M463.438,343.688 L524.375,343.688 L524.375,403.188 L463.438,403.188 L463.438,343.688 Z"/></clipPath><image xlink:href="41.pdf" width="288" height="288" transform="matrix(0.249566,0,0,0.249566,454.875,338.5)"/></g><g clip-path="url(#600000559020)"><clipPath id="600000559020"><path fill="#fc4ed1" fill-opacity="0.17" stroke="#000100" stroke-width="0.1" d="M364.719,343.688 L425.656,343.688 L425.656,403.188 L364.719,403.188 L364.719,343.688 Z"/></clipPath><image xlink:href="42.pdf" width="288" height="288" transform="matrix(0.249566,0,0,0.249566,354.906,338.5)"/></g><g clip-path="url(#60800054e860)"><clipPath id="60800054e860"><path fill="#fc4ed1" fill-opacity="0.17" stroke="#000100" stroke-width="0.1" d="M266,343.688 L326.938,343.688 L326.938,403.188 L266,403.188 L266,343.688 Z"/></clipPath><image xlink:href="43.pdf" width="288" height="288" transform="matrix(0.249566,0,0,0.249566,256.125,338.625)"/></g><g clip-path="url(#600000558050)"><clipPath id="600000558050"><path fill="#fc4ed1" fill-opacity="0.17" stroke="#000100" stroke-width="0.1" d="M167.281,343.688 L228.219,343.688 L228.219,403.188 L167.281,403.188 L167.281,343.688 Z"/></clipPath><image xlink:href="44.pdf" width="288" height="288" transform="matrix(0.249566,0,0,0.249566,158.594,338.5)"/></g><g clip-path="url(#600000559230)"><clipPath id="600000559230"><path fill="#fc4ed1" fill-opacity="0.17" stroke="#000100" stroke-width="0.1" d="M68.5625,343.688 L129.5,343.688 L129.5,403.188 L68.5625,403.188 L68.5625,343.688 Z"/></clipPath><image xlink:href="45.pdf" width="288" height="288" transform="matrix(0.249566,0,0,0.249566,59.875,338.625)"/></g><g><g clip-path="url(#618000353980)"><clipPath id="618000353980"><path fill="#fc4ed1" fill-opacity="0.17" stroke="#000100" stroke-width="0.1" d="M70.5625,164.688 L131.5,164.688 L131.5,224.188 L70.5625,224.188 L70.5625,164.688 Z"/></clipPath><image xlink:href="50.pdf" width="288" height="288" transform="matrix(0.249566,0,0,0.249566,60.625,159.5)"/></g><g clip-path="url(#610000347220)"><clipPath id="610000347220"><path fill="#fc4ed1" fill-opacity="0.17" stroke="#000100" stroke-width="0.1" d="M266.656,164.688 L327.594,164.688 L327.594,224.188 L266.656,224.188 L266.656,164.688 Z"/></clipPath><image xlink:href="48.pdf" width="288" height="288" transform="matrix(0.249566,0,0,0.249566,257.969,159.562)"/></g><g clip-path="url(#618000354320)"><clipPath id="618000354320"><path fill="#fc4ed1" fill-opacity="0.17" stroke="#000100" stroke-width="0.1" d="M168.609,164.688 L229.547,164.688 L229.547,224.188 L168.609,224.188 L168.609,164.688 Z"/></clipPath><image xlink:href="49.pdf" width="288" height="288" transform="matrix(0.249566,0,0,0.249566,159.922,159.625)"/></g><g clip-path="url(#618000350b70)"><clipPath id="618000350b70"><path fill="#fc4ed1" fill-opacity="0.17" stroke="#000100" stroke-width="0.1" d="M364.703,164.688 L425.641,164.688 L425.641,224.188 L364.703,224.188 L364.703,164.688 Z"/></clipPath><image xlink:href="47.pdf" width="288" height="288" transform="matrix(0.249566,0,0,0.249566,356.016,159.5)"/></g><g clip-path="url(#618000354110)"><clipPath id="618000354110"><path fill="#fc4ed1" fill-opacity="0.17" stroke="#000100" stroke-width="0.1" d="M462.75,164.688 L523.688,164.688 L523.688,224.188 L462.75,224.188 L462.75,164.688 Z"/></clipPath><image xlink:href="46.pdf" width="288" height="288" transform="matrix(0.249566,0,0,0.249566,454.125,159.5)"/></g></g><text fill="#000100" font-family="Helvetica" font-size="6" transform="matrix(1,0,0,1,318.72,229.125)" xml:space="preserve"><tspan>1000</tspan></text><text fill="#000100" font-family="Helvetica" font-size="6" transform="matrix(1,0,0,1,273.307,229.219)" xml:space="preserve"><tspan>700</tspan></text><text fill="#000100" font-family="Helvetica" font-size="6" transform="matrix(1,0,0,1,317.095,408.375)" xml:space="preserve"><tspan>1000</tspan></text><text fill="#000100" font-family="Helvetica" font-size="6" transform="matrix(1,0,0,1,272.932,408.469)" xml:space="preserve"><tspan>700</tspan></text><text fill="#000100" font-family="Helvetica" font-size="10" transform="matrix(1,0,0,1,261.5,243.75)" xml:space="preserve"><tspan>x-position (pixels)</tspan></text><text fill="#000100" font-family="Helvetica" font-size="6" transform="matrix(1,0,0,1,515.095,229)" xml:space="preserve"><tspan>1000</tspan></text><text fill="#000100" font-family="Helvetica" font-size="6" transform="matrix(1,0,0,1,469.682,229.094)" xml:space="preserve"><tspan>700</tspan></text><text fill="#000100" font-family="Helvetica" font-size="6" transform="matrix(1,0,0,1,416.97,229.25)" xml:space="preserve"><tspan>1000</tspan></text><text fill="#000100" font-family="Helvetica" font-size="6" transform="matrix(1,0,0,1,371.557,229.344)" xml:space="preserve"><tspan>700</tspan></text><text fill="#000100" font-family="Helvetica" font-size="6" transform="matrix(1,0,0,1,220.845,229.5)" xml:space="preserve"><tspan>1000</tspan></text><text fill="#000100" font-family="Helvetica" font-size="6" transform="matrix(1,0,0,1,175.432,229.594)" xml:space="preserve"><tspan>700</tspan></text><text fill="#000100" font-family="Helvetica" font-size="6" transform="matrix(1,0,0,1,120.72,408.25)" xml:space="preserve"><tspan>1000</tspan></text><text fill="#000100" font-family="Helvetica" font-size="6" transform="matrix(1,0,0,1,75.3071,408.344)" xml:space="preserve"><tspan>700</tspan></text><text fill="#000100" font-family="Helvetica" font-size="6" transform="matrix(1,0,0,1,219.22,408.25)" xml:space="preserve"><tspan>1000</tspan></text><text fill="#000100" font-family="Helvetica" font-size="6" transform="matrix(1,0,0,1,173.807,408.344)" xml:space="preserve"><tspan>700</tspan></text><text fill="#000100" font-family="Helvetica" font-size="6" transform="matrix(1,0,0,1,515.845,408.375)" xml:space="preserve"><tspan>1000</tspan></text><text fill="#000100" font-family="Helvetica" font-size="6" transform="matrix(1,0,0,1,470.432,408.469)" xml:space="preserve"><tspan>700</tspan></text><text fill="#000100" font-family="Helvetica" font-size="6" transform="matrix(1,0,0,1,416.095,408.25)" xml:space="preserve"><tspan>1000</tspan></text><text fill="#000100" font-family="Helvetica" font-size="6" transform="matrix(1,0,0,1,371.682,408.344)" xml:space="preserve"><tspan>700</tspan></text><text fill="#000100" font-family="Helvetica" font-size="6" transform="matrix(1,0,0,1,121.595,229.25)" xml:space="preserve"><tspan>1000</tspan></text><text fill="#000100" font-family="Helvetica" font-size="6" transform="matrix(1,0,0,1,77.1821,229.344)" xml:space="preserve"><tspan>700</tspan></text></svg>
